<svg width="263" height="63" viewBox="0 0 263 63" fill="none" xmlns="http://www.w3.org/2000/svg">
<g clip-path="url(#clip0_3_17)">
<rect width="263" height="63" fill="white"/>
<path d="M35.5531 38.85C35.5865 43.2167 34.3365 46.6333 31.8031 49.1C29.2698 51.5333 25.7865 52.75 21.3531 52.75C18.7198 52.75 16.2865 52.15 14.0531 50.95C11.8531 49.75 10.1031 48.05 8.80313 45.85C7.50313 43.65 6.85313 41.1167 6.85313 38.25V30.95C6.85313 28.1167 7.46979 25.6 8.70313 23.4C9.96979 21.2 11.6865 19.5 13.8531 18.3C16.0531 17.0667 18.5031 16.45 21.2031 16.45C25.6365 16.45 29.1031 17.6667 31.6031 20.1C34.1365 22.5 35.4198 25.9 35.4531 30.3H26.4531C26.4198 28.6 25.9531 27.2833 25.0531 26.35C24.1865 25.4167 22.9031 24.95 21.2031 24.95C19.6698 24.95 18.4031 25.4333 17.4031 26.4C16.4031 27.3667 15.9031 28.7333 15.9031 30.5V38.65C15.9031 40.4167 16.4198 41.8 17.4531 42.8C18.5198 43.7667 19.8198 44.25 21.3531 44.25C24.8531 44.25 26.6031 42.45 26.6031 38.85H35.5531Z" fill="#155DFC"/>
<path d="M39.3148 52V17.2H41.1648V27.05C44.5982 27.05 47.8482 27.7167 50.9148 29.05C53.9815 30.35 56.6648 32.1833 58.9648 34.55C61.2648 36.8833 63.0315 39.5667 64.2648 42.6V17.2H66.1148V52H64.2648C64.2648 47.8333 63.2315 43.9833 61.1648 40.45C59.0982 36.8833 56.2815 34.0667 52.7148 32C49.1815 29.9333 45.3315 28.9 41.1648 28.9V52H39.3148ZM100.627 52H67.8266L84.2266 16.45L100.627 52ZM70.7266 50.15H97.7266L84.2266 20.85L70.7266 50.15ZM114.838 52V26H101.688V17.2H129.788V26H116.638V52H114.838ZM146.35 52V26H133.2V17.2H161.3V26H148.15V52H146.35ZM166.262 17.2H191.612V26H175.362V30.4H188.862V38.75H175.362V43.2H191.612V52H166.262V17.2ZM224.673 52H197.923V17.2H211.473C214.373 17.2 216.74 17.7167 218.573 18.75C220.373 19.75 221.773 21.1167 222.773 22.85C223.773 24.5833 224.273 26.5 224.273 28.6C224.273 31.2 223.473 33.5333 221.873 35.6C220.273 37.6333 218.257 38.9833 215.823 39.65L224.673 52ZM201.073 19.05L214.673 38.05C216.907 37.5833 218.757 36.4667 220.223 34.7C221.69 32.9333 222.423 30.9 222.423 28.6C222.423 26.7667 221.973 25.1 221.073 23.6C220.173 22.1 218.907 20.95 217.273 20.15C215.807 19.4167 213.89 19.05 211.523 19.05H201.073ZM199.773 20.25V38.2H212.623L199.773 20.25ZM199.773 50.15H221.173L213.873 40L212.323 40.05H199.773V50.15ZM226.935 17.2H256.635L242.735 37.75V52H240.885V37.75L226.935 17.2Z" fill="black"/>
</g>
<defs>
<clipPath id="clip0_3_17">
<rect width="263" height="63" fill="white"/>
</clipPath>
</defs>
</svg>
