<svg width="525" height="125" viewBox="0 0 525 125" fill="none" xmlns="http://www.w3.org/2000/svg">
<g clip-path="url(#clip0_3_14)">
<rect width="525" height="125" fill="white"/>
<path d="M70.6063 76.7C70.6729 85.4333 68.1729 92.2667 63.1063 97.2C58.0396 102.067 51.0729 104.5 42.2063 104.5C36.9396 104.5 32.0729 103.3 27.6063 100.9C23.2063 98.5 19.7063 95.1 17.1063 90.7C14.5063 86.3 13.2063 81.2333 13.2063 75.5V60.9C13.2063 55.2333 14.4396 50.2 16.9063 45.8C19.4396 41.4 22.8729 38 27.2063 35.6C31.6063 33.1333 36.5063 31.9 41.9063 31.9C50.7729 31.9 57.7063 34.3333 62.7063 39.2C67.7729 44 70.3396 50.8 70.4063 59.6H52.4063C52.3396 56.2 51.4063 53.5667 49.6063 51.7C47.8729 49.8333 45.3063 48.9 41.9063 48.9C38.8396 48.9 36.3063 49.8667 34.3062 51.8C32.3062 53.7333 31.3062 56.4667 31.3062 60V76.3C31.3062 79.8333 32.3396 82.6 34.4063 84.6C36.5396 86.5333 39.1396 87.5 42.2063 87.5C49.2063 87.5 52.7063 83.9 52.7063 76.7H70.6063Z" fill="#155DFC"/>
<path d="M78.1297 103V33.4H81.8297V53.1C88.6964 53.1 95.1964 54.4333 101.33 57.1C107.463 59.7 112.83 63.3667 117.43 68.1C122.03 72.7667 125.563 78.1333 128.03 84.2V33.4H131.73V103H128.03C128.03 94.6667 125.963 86.9667 121.83 79.9C117.696 72.7667 112.063 67.1333 104.93 63C97.863 58.8667 90.163 56.8 81.8297 56.8V103H78.1297ZM200.753 103H135.153L167.953 31.9L200.753 103ZM140.953 99.3H194.953L167.953 40.7L140.953 99.3ZM229.177 103V51H202.877V33.4H259.077V51H232.777V103H229.177ZM292.2 103V51H265.9V33.4H322.1V51H295.8V103H292.2ZM332.023 33.4H382.723V51H350.223V59.8H377.223V76.5H350.223V85.4H382.723V103H332.023V33.4ZM448.847 103H395.347V33.4H422.447C428.247 33.4 432.98 34.4333 436.647 36.5C440.247 38.5 443.047 41.2333 445.047 44.7C447.047 48.1667 448.047 52 448.047 56.2C448.047 61.4 446.447 66.0667 443.247 70.2C440.047 74.2667 436.014 76.9667 431.147 78.3L448.847 103ZM401.647 37.1L428.847 75.1C433.314 74.1667 437.014 71.9333 439.947 68.4C442.88 64.8667 444.347 60.8 444.347 56.2C444.347 52.5333 443.447 49.2 441.647 46.2C439.847 43.2 437.314 40.9 434.047 39.3C431.114 37.8333 427.28 37.1 422.547 37.1H401.647ZM399.047 39.5V75.4H424.747L399.047 39.5ZM399.047 99.3H441.847L427.247 79L424.147 79.1H399.047V99.3ZM453.37 33.4H512.77L484.97 74.5V103H481.27V74.5L453.37 33.4Z" fill="black"/>
</g>
<defs>
<clipPath id="clip0_3_14">
<rect width="525" height="125" fill="white"/>
</clipPath>
</defs>
</svg>
