<svg width="2100" height="500" viewBox="0 0 2100 500" fill="none" xmlns="http://www.w3.org/2000/svg">
<g clip-path="url(#clip0_2_57)">
<rect width="2100" height="500" fill="white"/>
<path d="M282.425 304.8C282.692 339.733 272.692 367.067 252.425 386.8C232.158 406.267 204.292 416 168.825 416C147.758 416 128.292 411.2 110.425 401.6C92.825 392 78.825 378.4 68.425 360.8C58.025 343.2 52.825 322.933 52.825 300V241.6C52.825 218.933 57.7583 198.8 67.625 181.2C77.7583 163.6 91.4917 150 108.825 140.4C126.425 130.533 146.025 125.6 167.625 125.6C203.092 125.6 230.825 135.333 250.825 154.8C271.092 174 281.358 201.2 281.625 236.4H209.625C209.358 222.8 205.625 212.267 198.425 204.8C191.492 197.333 181.225 193.6 167.625 193.6C155.358 193.6 145.225 197.467 137.225 205.2C129.225 212.933 125.225 223.867 125.225 238V303.2C125.225 317.333 129.358 328.4 137.625 336.4C146.158 344.133 156.558 348 168.825 348C196.825 348 210.825 333.6 210.825 304.8H282.425Z" fill="#155DFC"/>
<path d="M312.519 410V131.6H327.319V210.4C354.785 210.4 380.785 215.733 405.319 226.4C429.852 236.8 451.319 251.467 469.719 270.4C488.119 289.067 502.252 310.533 512.119 334.8V131.6H526.919V410H512.119C512.119 376.667 503.852 345.867 487.319 317.6C470.785 289.067 448.252 266.533 419.719 250C391.452 233.467 360.652 225.2 327.319 225.2V410H312.519ZM803.013 410H540.613L671.813 125.6L803.013 410ZM563.813 395.2H779.813L671.813 160.8L563.813 395.2ZM916.706 410V202H811.506V131.6H1036.31V202H931.106V410H916.706ZM1168.8 410V202H1063.6V131.6H1288.4V202H1183.2V410H1168.8ZM1328.09 131.6H1530.89V202H1400.89V237.2H1508.89V304H1400.89V339.6H1530.89V410H1328.09V131.6ZM1795.39 410H1581.39V131.6H1689.79C1712.99 131.6 1731.92 135.733 1746.59 144C1760.99 152 1772.19 162.933 1780.19 176.8C1788.19 190.667 1792.19 206 1792.19 222.8C1792.19 243.6 1785.79 262.267 1772.99 278.8C1760.19 295.067 1744.05 305.867 1724.59 311.2L1795.39 410ZM1606.59 146.4L1715.39 298.4C1733.25 294.667 1748.05 285.733 1759.79 271.6C1771.52 257.467 1777.39 241.2 1777.39 222.8C1777.39 208.133 1773.79 194.8 1766.59 182.8C1759.39 170.8 1749.25 161.6 1736.19 155.2C1724.45 149.333 1709.12 146.4 1690.19 146.4H1606.59ZM1596.19 156V299.6H1698.99L1596.19 156ZM1596.19 395.2H1767.39L1708.99 314L1696.59 314.4H1596.19V395.2ZM1813.48 131.6H2051.08L1939.88 296V410H1925.08V296L1813.48 131.6Z" fill="black"/>
</g>
<defs>
<clipPath id="clip0_2_57">
<rect width="2100" height="500" fill="white"/>
</clipPath>
</defs>
</svg>
