<svg width="1050" height="250" viewBox="0 0 1050 250" fill="none" xmlns="http://www.w3.org/2000/svg">
<g clip-path="url(#clip0_3_11)">
<rect width="1050" height="250" fill="white"/>
<path d="M141.213 152.4C141.346 169.867 136.346 183.533 126.213 193.4C116.079 203.133 102.146 208 84.4125 208C73.8792 208 64.1458 205.6 55.2125 200.8C46.4125 196 39.4125 189.2 34.2125 180.4C29.0125 171.6 26.4125 161.467 26.4125 150V120.8C26.4125 109.467 28.8792 99.4 33.8125 90.6C38.8792 81.8 45.7458 75 54.4125 70.2C63.2125 65.2667 73.0125 62.8 83.8125 62.8C101.546 62.8 115.413 67.6667 125.413 77.4C135.546 87 140.679 100.6 140.813 118.2H104.813C104.679 111.4 102.813 106.133 99.2125 102.4C95.7458 98.6667 90.6125 96.8 83.8125 96.8C77.6792 96.8 72.6125 98.7333 68.6125 102.6C64.6125 106.467 62.6125 111.933 62.6125 119V151.6C62.6125 158.667 64.6792 164.2 68.8125 168.2C73.0792 172.067 78.2792 174 84.4125 174C98.4125 174 105.413 166.8 105.413 152.4H141.213Z" fill="#155DFC"/>
<path d="M156.259 205V65.8H163.659V105.2C177.393 105.2 190.393 107.867 202.659 113.2C214.926 118.4 225.659 125.733 234.859 135.2C244.059 144.533 251.126 155.267 256.059 167.4V65.8H263.459V205H256.059C256.059 188.333 251.926 172.933 243.659 158.8C235.393 144.533 224.126 133.267 209.859 125C195.726 116.733 180.326 112.6 163.659 112.6V205H156.259ZM401.506 205H270.306L335.906 62.8L401.506 205ZM281.906 197.6H389.906L335.906 80.4L281.906 197.6ZM458.353 205V101H405.753V65.8H518.153V101H465.553V205H458.353ZM584.4 205V101H531.8V65.8H644.2V101H591.6V205H584.4ZM664.047 65.8H765.447V101H700.447V118.6H754.447V152H700.447V169.8H765.447V205H664.047V65.8ZM897.694 205H790.694V65.8H844.894C856.494 65.8 865.96 67.8667 873.294 72C880.494 76 886.094 81.4667 890.094 88.4C894.094 95.3333 896.094 103 896.094 111.4C896.094 121.8 892.894 131.133 886.494 139.4C880.094 147.533 872.027 152.933 862.294 155.6L897.694 205ZM803.294 73.2L857.694 149.2C866.627 147.333 874.027 142.867 879.894 135.8C885.76 128.733 888.694 120.6 888.694 111.4C888.694 104.067 886.894 97.4 883.294 91.4C879.694 85.4 874.627 80.8 868.094 77.6C862.227 74.6667 854.56 73.2 845.094 73.2H803.294ZM798.094 78V149.8H849.494L798.094 78ZM798.094 197.6H883.694L854.494 157L848.294 157.2H798.094V197.6ZM906.741 65.8H1025.54L969.941 148V205H962.541V148L906.741 65.8Z" fill="black"/>
</g>
<defs>
<clipPath id="clip0_3_11">
<rect width="1050" height="250" fill="white"/>
</clipPath>
</defs>
</svg>
