<svg width="125" height="125" viewBox="0 0 125 125" fill="none" xmlns="http://www.w3.org/2000/svg">
<g clip-path="url(#clip0_3_8)">
<rect width="125" height="125" fill="white"/>
<path d="M71.7066 76.7C71.7732 85.4333 69.2732 92.2667 64.2066 97.2C59.1399 102.067 52.1732 104.5 43.3066 104.5C38.0399 104.5 33.1732 103.3 28.7066 100.9C24.3066 98.5 20.8066 95.1 18.2066 90.7C15.6066 86.3 14.3066 81.2333 14.3066 75.5V60.9C14.3066 55.2333 15.5399 50.2 18.0066 45.8C20.5399 41.4 23.9732 38 28.3066 35.6C32.7066 33.1333 37.6066 31.9 43.0066 31.9C51.8732 31.9 58.8066 34.3333 63.8066 39.2C68.8732 44 71.4399 50.8 71.5066 59.6H53.5066C53.4399 56.2 52.5066 53.5667 50.7066 51.7C48.9732 49.8333 46.4066 48.9 43.0066 48.9C39.9399 48.9 37.4066 49.8667 35.4066 51.8C33.4066 53.7333 32.4066 56.4667 32.4066 60V76.3C32.4066 79.8333 33.4399 82.6 35.5066 84.6C37.6399 86.5333 40.2399 87.5 43.3066 87.5C50.3066 87.5 53.8066 83.9 53.8066 76.7H71.7066Z" fill="#155DFC"/>
<path d="M80.17 103V51H53.87V33.4H110.07V51H83.77V103H80.17Z" fill="black"/>
</g>
<defs>
<clipPath id="clip0_3_8">
<rect width="125" height="125" fill="white"/>
</clipPath>
</defs>
</svg>
