<svg width="250" height="250" viewBox="0 0 250 250" fill="none" xmlns="http://www.w3.org/2000/svg">
<g clip-path="url(#clip0_3_2)">
<rect width="250" height="250" fill="white"/>
<path d="M143.413 152.4C143.546 169.867 138.546 183.533 128.413 193.4C118.28 203.133 104.346 208 86.6131 208C76.0798 208 66.3465 205.6 57.4131 200.8C48.6131 196 41.6131 189.2 36.4131 180.4C31.2131 171.6 28.6131 161.467 28.6131 150V120.8C28.6131 109.467 31.0798 99.4 36.0131 90.6C41.0798 81.8 47.9465 75 56.6131 70.2C65.4131 65.2667 75.2131 62.8 86.0131 62.8C103.746 62.8 117.613 67.6667 127.613 77.4C137.746 87 142.88 100.6 143.013 118.2H107.013C106.88 111.4 105.013 106.133 101.413 102.4C97.9465 98.6667 92.8131 96.8 86.0131 96.8C79.8798 96.8 74.8131 98.7333 70.8131 102.6C66.8131 106.467 64.8131 111.933 64.8131 119V151.6C64.8131 158.667 66.8798 164.2 71.0131 168.2C75.2798 172.067 80.4798 174 86.6131 174C100.613 174 107.613 166.8 107.613 152.4H143.413Z" fill="#155DFC"/>
<path d="M160.34 205V101H107.74V65.8H220.14V101H167.54V205H160.34Z" fill="black"/>
</g>
<defs>
<clipPath id="clip0_3_2">
<rect width="250" height="250" fill="white"/>
</clipPath>
</defs>
</svg>
