<svg width="25" height="25" viewBox="0 0 25 25" fill="none" xmlns="http://www.w3.org/2000/svg">
<g clip-path="url(#clip0_3_5)">
<rect width="25" height="25" />
<path d="M14.5254 15.214C14.5401 17.1353 13.9901 18.6387 12.8754 19.724C11.7608 20.7947 10.2281 21.33 8.27744 21.33C7.11878 21.33 6.04811 21.066 5.06544 20.538C4.09744 20.01 3.32744 19.262 2.75544 18.294C2.18344 17.326 1.89744 16.2113 1.89744 14.95V11.738C1.89744 10.4913 2.16878 9.384 2.71144 8.416C3.26878 7.448 4.02411 6.7 4.97744 6.172C5.94544 5.62933 7.02344 5.358 8.21144 5.358C10.1621 5.358 11.6874 5.89333 12.7874 6.964C13.9021 8.02 14.4668 9.516 14.4814 11.452H10.5214C10.5068 10.704 10.3014 10.1247 9.90544 9.714C9.52411 9.30333 8.95944 9.098 8.21144 9.098C7.53678 9.098 6.97944 9.31067 6.53944 9.736C6.09944 10.1613 5.87944 10.7627 5.87944 11.54V15.126C5.87944 15.9033 6.10678 16.512 6.56144 16.952C7.03078 17.3773 7.60278 17.59 8.27744 17.59C9.81744 17.59 10.5874 16.798 10.5874 15.214H14.5254Z" fill="#155DFC"/>
<path d="M16.3874 21V9.56H10.6014V5.688H22.9654V9.56H17.1794V21H16.3874Z" fill="black"/>
</g>
<defs>
<clipPath id="clip0_3_5">
<rect width="25" height="25" />
</clipPath>
</defs>
</svg>
