<svg width="500" height="500" viewBox="0 0 500 500" fill="none" xmlns="http://www.w3.org/2000/svg">
<g clip-path="url(#clip0_1_2)">
<rect width="500" height="500" fill="white"/>
<path d="M286.826 304.8C287.093 339.733 277.093 367.067 256.826 386.8C236.56 406.267 208.693 416 173.226 416C152.16 416 132.693 411.2 114.826 401.6C97.2263 392 83.2262 378.4 72.8262 360.8C62.4262 343.2 57.2262 322.933 57.2262 300V241.6C57.2262 218.933 62.1596 198.8 72.0262 181.2C82.1596 163.6 95.8929 150 113.226 140.4C130.826 130.533 150.426 125.6 172.026 125.6C207.493 125.6 235.226 135.333 255.226 154.8C275.493 174 285.76 201.2 286.026 236.4H214.026C213.76 222.8 210.026 212.267 202.826 204.8C195.893 197.333 185.626 193.6 172.026 193.6C159.76 193.6 149.626 197.467 141.626 205.2C133.626 212.933 129.626 223.867 129.626 238V303.2C129.626 317.333 133.76 328.4 142.026 336.4C150.56 344.133 160.96 348 173.226 348C201.226 348 215.226 333.6 215.226 304.8H286.826Z" fill="#155DFC"/>
<path d="M320.68 410V202H215.48V131.6H440.28V202H335.08V410H320.68Z" fill="black"/>
</g>
<defs>
<clipPath id="clip0_1_2">
<rect width="500" height="500" fill="white"/>
</clipPath>
</defs>
</svg>
